<svg
  width="40"
  height="40"
  viewBox="0 0 40 40"
  fill="none"
  xmlns="http://www.w3.org/2000/svg"
>
    <ellipse cx="20" cy="28" rx="4" ry="2" fill="#CFE1D4" opacity="0.5" />
    <path
      d="M20 28C20 28 15 24 15 18C15 14 17 12 20 12C23 12 25 14 25 18C25 24 20 28 20 28Z"
      fill="#6E4C6F"
    />
    <path
      d="M20 28C20 28 12 26 10 20C9 16 11 13 14 13C17 13 19 16 20 20C20 23 20 28 20 28Z"
      fill="#F7E6E1"
      opacity="0.8"
    />
    <path
      d="M20 28C20 28 28 26 30 20C31 16 29 13 26 13C23 13 21 16 20 20C20 23 20 28 20 28Z"
      fill="#CFE1D4"
      opacity="0.8"
    />
    <circle cx="20" cy="18" r="2.5" fill="#FDFBF9" />
  </svg>
